<svg width="512" height="512" version="1.1" xmlns="http://www.w3.org/2000/svg" desc="Created with imagetracer.js version 1.2.6" ><path fill="rgb(163,188,247)" stroke="rgb(163,188,247)" stroke-width="1" opacity="1" d="M 278.5 60 L 282 60.5 L 278.5 61 L 278.5 60 Z " /><path fill="rgb(163,188,247)" stroke="rgb(163,188,247)" stroke-width="1" opacity="1" d="M 286.5 61 L 289 61.5 L 286.5 62 L 286.5 61 Z " /><path fill="rgb(163,188,247)" stroke="rgb(163,188,247)" stroke-width="1" opacity="1" d="M 157.5 62 L 153.5 67 L 157.5 62 Z " /><path fill="rgb(163,188,247)" stroke="rgb(163,188,247)" stroke-width="1" opacity="1" d="M 330.5 82 L 338.5 91 L 330.5 82 Z " /><path fill="rgb(163,188,247)" stroke="rgb(163,188,247)" stroke-width="1" opacity="1" d="M 341.5 94 L 342.5 96 L 341.5 94 Z " /><path fill="rgb(163,188,247)" stroke="rgb(163,188,247)" stroke-width="1" opacity="1" d="M 344.5 98 L 345.5 100 L 344.5 98 Z " /><path fill="rgb(163,188,247)" stroke="rgb(163,188,247)" stroke-width="1" opacity="1" d="M 273.5 120 L 277 120.5 L 273.5 121 L 273.5 120 Z " /><path fill="rgb(163,188,247)" stroke="rgb(163,188,247)" stroke-width="1" opacity="1" d="M 289.5 126 L 294.5 132 L 289.5 126 Z " /><path fill="rgb(163,188,247)" stroke="rgb(163,188,247)" stroke-width="1" opacity="1" d="M 359.5 132 L 360 134.5 L 359 134.5 L 359.5 132 Z " /><path fill="rgb(163,188,247)" stroke="rgb(163,188,247)" stroke-width="1" opacity="1" d="M 360.5 139 L 361 142.5 L 360 142.5 L 360.5 139 Z " /><path fill="rgb(163,188,247)" stroke="rgb(163,188,247)" stroke-width="1" opacity="1" d="M 300.5 144 L 301 147.5 L 300 147.5 L 300.5 144 Z " /><path fill="rgb(163,188,247)" stroke="rgb(163,188,247)" stroke-width="1" opacity="1" d="M 300.5 152 L 301 155.5 L 300 155.5 L 300.5 152 Z " /><path fill="rgb(163,188,247)" stroke="rgb(163,188,247)" stroke-width="1" opacity="1" d="M 360.5 157 L 361 160.5 L 360 160.5 L 360.5 157 Z " /><path fill="rgb(163,188,247)" stroke="rgb(163,188,247)" stroke-width="1" opacity="1" d="M 359.5 165 L 360 167.5 L 359 167.5 L 359.5 165 Z " /><path fill="rgb(163,188,247)" stroke="rgb(163,188,247)" stroke-width="1" opacity="1" d="M 294.5 168 L 289.5 174 L 294.5 168 Z " /><path fill="rgb(163,188,247)" stroke="rgb(163,188,247)" stroke-width="1" opacity="1" d="M 273.5 179 L 277 179.5 L 273.5 180 L 273.5 179 Z " /><path fill="rgb(163,188,247)" stroke="rgb(163,188,247)" stroke-width="1" opacity="1" d="M 345.5 200 L 344.5 202 L 345.5 200 Z " /><path fill="rgb(163,188,247)" stroke="rgb(163,188,247)" stroke-width="1" opacity="1" d="M 342.5 204 L 341.5 206 L 342.5 204 Z " /><path fill="rgb(163,188,247)" stroke="rgb(163,188,247)" stroke-width="1" opacity="1" d="M 338.5 209 L 330.5 218 L 338.5 209 Z " /><path fill="rgb(163,188,247)" stroke="rgb(163,188,247)" stroke-width="1" opacity="1" d="M 286.5 238 L 289 238.5 L 286.5 239 L 286.5 238 Z " /><path fill="rgb(163,188,247)" stroke="rgb(163,188,247)" stroke-width="1" opacity="1" d="M 278.5 239 L 282 239.5 L 278.5 240 L 278.5 239 Z " /><path fill="rgb(163,188,247)" stroke="rgb(163,188,247)" stroke-width="1" opacity="1" d="M 153.5 355 L 157.5 360 L 153.5 355 Z " /><path fill="rgb(163,188,247)" stroke="rgb(163,188,247)" stroke-width="1" opacity="1" d="M 208.5 355 L 204.5 360 L 208.5 355 Z " /><path fill="rgb(163,188,247)" stroke="rgb(163,188,247)" stroke-width="1" opacity="1" d="M 306.5 365 L 304.5 368 L 306.5 365 Z " /><path fill="rgb(163,188,247)" stroke="rgb(163,188,247)" stroke-width="1" opacity="1" d="M 325.5 365 L 357.5 398 L 325.5 365 Z " /><path fill="rgb(163,188,247)" stroke="rgb(163,188,247)" stroke-width="1" opacity="1" d="M 304.5 386 L 309.5 392 L 304.5 386 Z " /><path fill="rgb(163,188,247)" stroke="rgb(163,188,247)" stroke-width="1" opacity="1" d="M 157.5 394 L 153.5 399 L 157.5 394 Z " /><path fill="rgb(163,188,247)" stroke="rgb(163,188,247)" stroke-width="1" opacity="1" d="M 360.5 404 L 361 410.5 L 360 410.5 L 360.5 404 Z " /><path fill="rgb(163,188,247)" stroke="rgb(163,188,247)" stroke-width="1" opacity="1" d="M 153.5 415 L 157.5 420 L 153.5 415 Z " /><path fill="rgb(163,188,247)" stroke="rgb(163,188,247)" stroke-width="1" opacity="1" d="M 357.5 416 L 325.5 449 L 357.5 416 Z " /><path fill="rgb(163,188,247)" stroke="rgb(163,188,247)" stroke-width="1" opacity="1" d="M 309.5 422 L 304.5 428 L 309.5 422 Z " /><path fill="rgb(163,188,247)" stroke="rgb(163,188,247)" stroke-width="1" opacity="1" d="M 304.5 446 L 306.5 449 L 304.5 446 Z " /><path fill="rgb(19,117,244)" stroke="rgb(19,117,244)" stroke-width="1" opacity="0.8235294117647058" d="M 412.5 0 L 415 0.5 L 412.5 1 L 412.5 0 Z " /><path fill="rgb(19,117,244)" stroke="rgb(19,117,244)" stroke-width="1" opacity="0.8235294117647058" d="M 457.5 20 L 460.5 24 L 457.5 20 Z " /><path fill="rgb(19,117,244)" stroke="rgb(19,117,244)" stroke-width="1" opacity="0.8235294117647058" d="M 480.5 66 L 481 68.5 L 480 68.5 L 480.5 66 Z " /><path fill="rgb(19,117,244)" stroke="rgb(19,117,244)" stroke-width="1" opacity="0.8235294117647058" d="M 480.5 443 L 481 445.5 L 480 445.5 L 480.5 443 Z " /><path fill="rgb(19,117,244)" stroke="rgb(19,117,244)" stroke-width="1" opacity="0.8235294117647058" d="M 460.5 488 L 457.5 492 L 460.5 488 Z " /><path fill="rgb(19,117,244)" stroke="rgb(19,117,244)" stroke-width="1" opacity="0.8235294117647058" d="M 412.5 511 L 415 511.5 L 412.5 512 L 412.5 511 Z " /><path fill="rgb(0,0,0)" stroke="rgb(0,0,0)" stroke-width="1" opacity="0" d="M 0 0 L 94 0.5 Q 61.9 6.4 46 28.5 Q 34.7 42.2 31 63.5 L 31 448.5 Q 37.3 480.7 59.5 497 Q 72.7 508.3 94 511.5 L 0 512 L 0 0 Z " /><path fill="rgb(0,0,0)" stroke="rgb(0,0,0)" stroke-width="1" opacity="0" d="M 418.5 0 L 511.5 0 L 512 0.5 L 512 512 L 418 511.5 L 435.5 507 L 448.5 500 L 460 491 L 469 479.5 L 476 466.5 L 481 448.5 L 481 63.5 L 476 45.5 L 469 32.5 L 460 21 L 443.5 9 L 430.5 3 L 418.5 1 L 418.5 0 Z " /><path fill="rgb(38,139,250)" stroke="rgb(38,139,250)" stroke-width="1" opacity="0.596078431372549" d="M 94.5 0 L 101 0.5 L 94.5 1 L 94.5 0 Z " /><path fill="rgb(38,139,250)" stroke="rgb(38,139,250)" stroke-width="1" opacity="0.596078431372549" d="M 415.5 0 L 418 0.5 L 415.5 1 L 415.5 0 Z " /><path fill="rgb(38,139,250)" stroke="rgb(38,139,250)" stroke-width="1" opacity="0.596078431372549" d="M 89.5 1 L 93 1.5 L 89.5 2 L 89.5 1 Z " /><path fill="rgb(38,139,250)" stroke="rgb(38,139,250)" stroke-width="1" opacity="0.596078431372549" d="M 85.5 2 L 88 2.5 L 85.5 3 L 85.5 2 Z " /><path fill="rgb(38,139,250)" stroke="rgb(38,139,250)" stroke-width="1" opacity="0.596078431372549" d="M 79.5 4 L 81 4.5 Q 60.5 12 48 27.5 Q 39.9 36.9 35.5 50 L 35 48.5 Q 42.9 28.4 58.5 16 Q 67.4 8.4 79.5 4 Z " /><path fill="rgb(38,139,250)" stroke="rgb(38,139,250)" stroke-width="1" opacity="0.596078431372549" d="M 443.5 9 L 444.5 11 L 443.5 9 Z " /><path fill="rgb(38,139,250)" stroke="rgb(38,139,250)" stroke-width="1" opacity="0.596078431372549" d="M 448.5 12 L 450.5 15 L 448.5 12 Z " /><path fill="rgb(38,139,250)" stroke="rgb(38,139,250)" stroke-width="1" opacity="0.596078431372549" d="M 452.5 15 L 456.5 20 L 452.5 15 Z " /><path fill="rgb(38,139,250)" stroke="rgb(38,139,250)" stroke-width="1" opacity="0.596078431372549" d="M 461.5 24 L 465.5 29 L 461.5 24 Z " /><path fill="rgb(38,139,250)" stroke="rgb(38,139,250)" stroke-width="1" opacity="0.596078431372549" d="M 466.5 30 L 468.5 33 L 466.5 30 Z " /><path fill="rgb(38,139,250)" stroke="rgb(38,139,250)" stroke-width="1" opacity="0.596078431372549" d="M 470.5 36 L 471.5 38 L 470.5 36 Z " /><path fill="rgb(38,139,250)" stroke="rgb(38,139,250)" stroke-width="1" opacity="0.596078431372549" d="M 33.5 54 L 34 56.5 L 33 56.5 L 33.5 54 Z " /><path fill="rgb(38,139,250)" stroke="rgb(38,139,250)" stroke-width="1" opacity="0.596078431372549" d="M 32.5 58 L 33 61.5 L 32 61.5 L 32.5 58 Z " /><path fill="rgb(38,139,250)" stroke="rgb(38,139,250)" stroke-width="1" opacity="0.596078431372549" d="M 31.5 63 L 32 69.5 L 31 69.5 L 31.5 63 Z " /><path fill="rgb(38,139,250)" stroke="rgb(38,139,250)" stroke-width="1" opacity="0.596078431372549" d="M 480.5 63 L 481 65.5 L 480 65.5 L 480.5 63 Z " /><path fill="rgb(38,139,250)" stroke="rgb(38,139,250)" stroke-width="1" opacity="0.596078431372549" d="M 31.5 442 L 32 448.5 L 31 448.5 L 31.5 442 Z " /><path fill="rgb(38,139,250)" stroke="rgb(38,139,250)" stroke-width="1" opacity="0.596078431372549" d="M 480.5 446 L 481 448.5 L 480 448.5 L 480.5 446 Z " /><path fill="rgb(38,139,250)" stroke="rgb(38,139,250)" stroke-width="1" opacity="0.596078431372549" d="M 32.5 450 L 33 453.5 L 32 453.5 L 32.5 450 Z " /><path fill="rgb(38,139,250)" stroke="rgb(38,139,250)" stroke-width="1" opacity="0.596078431372549" d="M 33.5 455 L 34 457.5 L 33 457.5 L 33.5 455 Z " /><path fill="rgb(38,139,250)" stroke="rgb(38,139,250)" stroke-width="1" opacity="0.596078431372549" d="M 35.5 462 Q 43 482.5 58.5 495 Q 67.9 503.1 81 507.5 L 79.5 508 Q 59.4 500.1 47 484.5 Q 38.4 475.1 35.5 462 Z " /><path fill="rgb(38,139,250)" stroke="rgb(38,139,250)" stroke-width="1" opacity="0.596078431372549" d="M 471.5 474 L 470.5 476 L 471.5 474 Z " /><path fill="rgb(38,139,250)" stroke="rgb(38,139,250)" stroke-width="1" opacity="0.596078431372549" d="M 468.5 479 L 466.5 482 L 468.5 479 Z " /><path fill="rgb(38,139,250)" stroke="rgb(38,139,250)" stroke-width="1" opacity="0.596078431372549" d="M 465.5 483 L 461.5 488 L 465.5 483 Z " /><path fill="rgb(38,139,250)" stroke="rgb(38,139,250)" stroke-width="1" opacity="0.596078431372549" d="M 456.5 492 L 452.5 497 L 456.5 492 Z " /><path fill="rgb(38,139,250)" stroke="rgb(38,139,250)" stroke-width="1" opacity="0.596078431372549" d="M 450.5 497 L 448.5 500 L 450.5 497 Z " /><path fill="rgb(38,139,250)" stroke="rgb(38,139,250)" stroke-width="1" opacity="0.596078431372549" d="M 444.5 501 L 443.5 503 L 444.5 501 Z " /><path fill="rgb(38,139,250)" stroke="rgb(38,139,250)" stroke-width="1" opacity="0.596078431372549" d="M 85.5 509 L 88 509.5 L 85.5 510 L 85.5 509 Z " /><path fill="rgb(38,139,250)" stroke="rgb(38,139,250)" stroke-width="1" opacity="0.596078431372549" d="M 89.5 510 L 93 510.5 L 89.5 511 L 89.5 510 Z " /><path fill="rgb(38,139,250)" stroke="rgb(38,139,250)" stroke-width="1" opacity="0.596078431372549" d="M 94.5 511 L 101 511.5 L 94.5 512 L 94.5 511 Z " /><path fill="rgb(38,139,250)" stroke="rgb(38,139,250)" stroke-width="1" opacity="0.596078431372549" d="M 415.5 511 L 418 511.5 L 415.5 512 L 415.5 511 Z " /><path fill="rgb(22,137,252)" stroke="rgb(22,137,252)" stroke-width="1" opacity="1" d="M 103.5 0 L 256 0 L 256 60 L 162.5 60 Q 156 61.5 153 66.5 L 151 71.5 L 151 350.5 Q 152.5 357 157.5 360 L 162.5 362 L 199.5 362 Q 206 360.5 209 355.5 L 211 350.5 L 211 240 L 255.5 240 L 256 240.5 L 256 392 L 162.5 392 Q 156 393.5 153 398.5 Q 150 402.5 151 410.5 Q 152.5 417 157.5 420 L 162.5 422 L 256 422 L 256 512 L 103.5 512 L 102.5 511 L 89.5 510 L 76.5 506 Q 59.2 498.3 48 484.5 L 37 466.5 L 32 449.5 L 32 440.5 L 31 439.5 L 31 72.5 L 32 71.5 L 32 62.5 L 37 45.5 Q 44.7 28.2 58.5 17 L 76.5 6 L 89.5 2 L 102.5 1 L 103.5 0 Z " /><path fill="rgb(22,137,252)" stroke="rgb(22,137,252)" stroke-width="1" opacity="1" d="M 328.5 80 L 329.5 82 L 328.5 80 Z " /><path fill="rgb(22,137,252)" stroke="rgb(22,137,252)" stroke-width="1" opacity="1" d="M 339.5 91 L 340.5 93 L 339.5 91 Z " /><path fill="rgb(22,137,252)" stroke="rgb(22,137,252)" stroke-width="1" opacity="1" d="M 211 120 L 256 120 L 256 180 L 211 180 L 211 120 Z " /><path fill="rgb(22,137,252)" stroke="rgb(22,137,252)" stroke-width="1" opacity="1" d="M 340.5 207 L 339.5 209 L 340.5 207 Z " /><path fill="rgb(22,137,252)" stroke="rgb(22,137,252)" stroke-width="1" opacity="1" d="M 329.5 218 L 328.5 220 L 329.5 218 Z " /><path fill="rgb(197,201,247)" stroke="rgb(197,201,247)" stroke-width="1" opacity="1" d="M 256 60 L 285.5 61 L 306.5 67 Q 327.6 76.4 341 93.5 Q 351.4 105.6 357 122.5 L 361 143.5 L 361 156.5 L 357 177.5 L 350 193.5 Q 340.6 209.6 326.5 221 Q 314.6 230.6 298.5 236 L 277.5 240 L 256 240 L 256 180 L 276.5 180 Q 288.5 177 295 168.5 L 301 155.5 L 301 144.5 Q 298 132.5 289.5 126 L 276.5 120 L 256 120 L 256 60 Z " /><path fill="rgb(197,201,247)" stroke="rgb(197,201,247)" stroke-width="1" opacity="1" d="M 313.5 362 Q 320.2 361.3 323.5 364 L 359 399.5 L 360 401.5 L 360 412.5 L 323.5 450 Q 320.2 452.7 313.5 452 Q 306.3 450.2 303 444.5 Q 300.3 441.2 301 434.5 Q 303.2 426.2 310 422.5 L 256 422 L 256 392 L 309.5 392 L 303 384.5 Q 300.3 381.2 301 374.5 Q 302.8 367.3 308.5 364 L 313.5 362 Z " /><path fill="rgb(225,228,251)" stroke="rgb(225,228,251)" stroke-width="1" opacity="1" d="M 165.5 60 L 256 60 L 256 120 L 211 120 L 211 180 L 256 180 L 256 240 L 211 240 L 211 347.5 L 209 354.5 L 203.5 360 L 196.5 362 L 165.5 362 L 158.5 360 L 153 354.5 L 151 347.5 L 151 74.5 L 153 67.5 L 157.5 63 L 165.5 60 Z " /><path fill="rgb(225,228,251)" stroke="rgb(225,228,251)" stroke-width="1" opacity="1" d="M 165.5 392 L 255.5 392 L 256 392.5 L 256 422 L 165.5 422 L 160.5 421 L 153 414.5 L 151 406.5 L 153 399.5 L 157.5 395 L 165.5 392 Z " /><path fill="rgb(19,110,241)" stroke="rgb(19,110,241)" stroke-width="1" opacity="1" d="M 256 0 L 411.5 0 Q 413.3 2.8 419.5 1 Q 449.2 7.8 465 28.5 L 477 50.5 L 481 69.5 L 481 442.5 L 478 458.5 L 471 474.5 Q 463.8 487.3 452.5 496 L 433.5 507 L 411.5 512 L 256 512 L 256 422 L 308.5 422 L 303 428.5 Q 299.5 432.5 301 441.5 L 307.5 450 Q 311.5 453.5 320.5 452 L 324.5 450 L 359 415.5 Q 362 411.5 361 403.5 L 359 398.5 L 324.5 364 Q 320.5 360.5 311.5 362 L 303 368.5 Q 299.5 372.5 301 381.5 L 309 391.5 L 256 392 L 256 240.5 L 256.5 240 L 282.5 240 Q 321.2 233.2 341 207.5 Q 352.3 194.3 358 175.5 L 361 161.5 L 361 138.5 Q 354.2 99.8 328.5 80 Q 315.3 68.7 296.5 63 L 282.5 60 L 256 60 L 256 0 Z " /><path fill="rgb(19,110,241)" stroke="rgb(19,110,241)" stroke-width="1" opacity="1" d="M 256 120 L 271.5 120 L 281.5 122 Q 290.9 125.6 296 133.5 L 299 139.5 L 301 150.5 L 299 160.5 L 296 166.5 L 287.5 175 L 278.5 179 L 256 180 L 256 120 Z " /></svg>