<svg width="256" height="256" version="1.1" xmlns="http://www.w3.org/2000/svg" desc="Created with imagetracer.js version 1.2.6" ><path fill="rgb(142,186,249)" stroke="rgb(142,186,249)" stroke-width="1" opacity="1" d="M 140.5 30 L 143 30.5 L 140.5 31 L 140.5 30 Z " /><path fill="rgb(142,186,249)" stroke="rgb(142,186,249)" stroke-width="1" opacity="1" d="M 78.5 31 L 77.5 33 L 78.5 31 Z " /><path fill="rgb(142,186,249)" stroke="rgb(142,186,249)" stroke-width="1" opacity="1" d="M 75.5 36 L 76 174.5 L 75 174.5 L 75.5 36 Z " /><path fill="rgb(142,186,249)" stroke="rgb(142,186,249)" stroke-width="1" opacity="1" d="M 160.5 37 L 161.5 39 L 160.5 37 Z " /><path fill="rgb(142,186,249)" stroke="rgb(142,186,249)" stroke-width="1" opacity="1" d="M 165.5 41 L 168.5 45 L 165.5 41 Z " /><path fill="rgb(142,186,249)" stroke="rgb(142,186,249)" stroke-width="1" opacity="1" d="M 105.5 60 L 106 89.5 L 105 89.5 L 105.5 60 Z " /><path fill="rgb(142,186,249)" stroke="rgb(142,186,249)" stroke-width="1" opacity="1" d="M 180.5 72 L 181 77.5 L 180 77.5 L 180.5 72 Z " /><path fill="rgb(142,186,249)" stroke="rgb(142,186,249)" stroke-width="1" opacity="1" d="M 168.5 105 L 165.5 109 L 168.5 105 Z " /><path fill="rgb(142,186,249)" stroke="rgb(142,186,249)" stroke-width="1" opacity="1" d="M 161.5 111 L 160.5 113 L 161.5 111 Z " /><path fill="rgb(142,186,249)" stroke="rgb(142,186,249)" stroke-width="1" opacity="1" d="M 140.5 119 L 143 119.5 L 140.5 120 L 140.5 119 Z " /><path fill="rgb(142,186,249)" stroke="rgb(142,186,249)" stroke-width="1" opacity="1" d="M 105.5 120 L 106 174.5 L 105 174.5 L 105.5 120 Z " /><path fill="rgb(142,186,249)" stroke="rgb(142,186,249)" stroke-width="1" opacity="1" d="M 77.5 178 L 78.5 180 L 77.5 178 Z " /><path fill="rgb(142,186,249)" stroke="rgb(142,186,249)" stroke-width="1" opacity="1" d="M 103.5 178 L 102.5 180 L 103.5 178 Z " /><path fill="rgb(142,186,249)" stroke="rgb(142,186,249)" stroke-width="1" opacity="1" d="M 153.5 182 L 152.5 184 L 153.5 182 Z " /><path fill="rgb(142,186,249)" stroke="rgb(142,186,249)" stroke-width="1" opacity="1" d="M 162.5 182 L 178.5 199 L 162.5 182 Z " /><path fill="rgb(142,186,249)" stroke="rgb(142,186,249)" stroke-width="1" opacity="1" d="M 150.5 187 L 151 189.5 L 150 189.5 L 150.5 187 Z " /><path fill="rgb(142,186,249)" stroke="rgb(142,186,249)" stroke-width="1" opacity="1" d="M 152.5 193 L 154.5 196 L 152.5 193 Z " /><path fill="rgb(142,186,249)" stroke="rgb(142,186,249)" stroke-width="1" opacity="1" d="M 78.5 197 L 77.5 199 L 78.5 197 Z " /><path fill="rgb(142,186,249)" stroke="rgb(142,186,249)" stroke-width="1" opacity="1" d="M 75.5 202 L 76 204.5 L 75 204.5 L 75.5 202 Z " /><path fill="rgb(142,186,249)" stroke="rgb(142,186,249)" stroke-width="1" opacity="1" d="M 77.5 208 L 78.5 210 L 77.5 208 Z " /><path fill="rgb(142,186,249)" stroke="rgb(142,186,249)" stroke-width="1" opacity="1" d="M 178.5 208 L 162.5 225 L 178.5 208 Z " /><path fill="rgb(142,186,249)" stroke="rgb(142,186,249)" stroke-width="1" opacity="1" d="M 154.5 211 L 152.5 214 L 154.5 211 Z " /><path fill="rgb(142,186,249)" stroke="rgb(142,186,249)" stroke-width="1" opacity="1" d="M 150.5 217 L 151 219.5 L 150 219.5 L 150.5 217 Z " /><path fill="rgb(142,186,249)" stroke="rgb(142,186,249)" stroke-width="1" opacity="1" d="M 152.5 223 L 153.5 225 L 152.5 223 Z " /><path fill="rgb(20,118,244)" stroke="rgb(20,118,244)" stroke-width="1" opacity="0.7725490196078432" d="M 206.5 0 L 210 0.5 L 206.5 1 L 206.5 0 Z " /><path fill="rgb(20,118,244)" stroke="rgb(20,118,244)" stroke-width="1" opacity="0.7725490196078432" d="M 226.5 8 L 227.5 10 L 226.5 8 Z " /><path fill="rgb(20,118,244)" stroke="rgb(20,118,244)" stroke-width="1" opacity="0.7725490196078432" d="M 231.5 13 L 232.5 15 L 231.5 13 Z " /><path fill="rgb(20,118,244)" stroke="rgb(20,118,244)" stroke-width="1" opacity="0.7725490196078432" d="M 240.5 36 L 241 219.5 L 240 219.5 L 240.5 36 Z " /><path fill="rgb(20,118,244)" stroke="rgb(20,118,244)" stroke-width="1" opacity="0.7725490196078432" d="M 232.5 241 L 231.5 243 L 232.5 241 Z " /><path fill="rgb(20,118,244)" stroke="rgb(20,118,244)" stroke-width="1" opacity="0.7725490196078432" d="M 227.5 246 L 226.5 248 L 227.5 246 Z " /><path fill="rgb(20,118,244)" stroke="rgb(20,118,244)" stroke-width="1" opacity="0.7725490196078432" d="M 206.5 255 L 210 255.5 L 206.5 256 L 206.5 255 Z " /><path fill="rgb(0,0,0)" stroke="rgb(0,0,0)" stroke-width="1" opacity="0" d="M 0 0 L 44 0.5 Q 31 3.5 24 12.5 L 18 21.5 L 15 32.5 L 15 223.5 L 18 234.5 L 27.5 247 Q 33.7 253.3 44 255.5 L 0 256 L 0 0 Z " /><path fill="rgb(0,0,0)" stroke="rgb(0,0,0)" stroke-width="1" opacity="0" d="M 212.5 0 L 255.5 0 L 256 0.5 L 256 256 L 212 255.5 Q 225 252.5 232 243.5 L 238 234.5 L 241 223.5 L 241 32.5 L 238 21.5 L 227.5 8 Q 222.3 2.2 212.5 1 L 212.5 0 Z " /><path fill="rgb(197,201,247)" stroke="rgb(197,201,247)" stroke-width="1" opacity="1" d="M 128 30 L 139.5 30 L 152.5 33 Q 164.4 38.6 172 48.5 L 180 66.5 L 180 83.5 Q 175.6 101.6 162.5 111 L 152.5 117 L 145.5 119 L 128 120 L 128 90 L 138.5 90 Q 145 88.5 148 83.5 L 151 74.5 Q 149.5 66 143.5 62 Q 137.9 58.4 128 60 L 128 30 Z " /><path fill="rgb(197,201,247)" stroke="rgb(197,201,247)" stroke-width="1" opacity="1" d="M 156.5 181 L 161.5 182 L 180 200.5 L 180 206.5 L 161.5 225 L 156.5 226 L 151 221.5 Q 149.5 213 155 211.5 L 128 211 L 128 196 L 154.5 196 L 151 191.5 Q 149.5 183.5 154.5 182 L 156.5 181 Z " /><path fill="rgb(19,110,241)" stroke="rgb(19,110,241)" stroke-width="1" opacity="1" d="M 128 0 L 205.5 0 L 215.5 2 Q 225 5.5 231 12.5 Q 237.5 19.5 240 30.5 L 240 225.5 Q 237 238.5 228.5 246 L 215.5 254 L 205.5 256 L 128 256 L 128 211 L 153.5 211 L 151 214.5 L 150 220.5 L 153.5 225 L 160.5 226 L 180 207.5 L 181 202.5 L 180 199.5 L 162.5 182 L 155.5 181 L 151 184.5 L 150 190.5 L 154 195.5 L 128 196 L 128 120.5 L 128.5 120 L 144.5 120 Q 161.4 115.4 171 103.5 L 180 85.5 L 181 71.5 Q 178.5 70 180 64.5 L 174 50.5 L 164.5 40 Q 156.5 33 144.5 30 L 128 30 L 128 0 Z " /><path fill="rgb(19,110,241)" stroke="rgb(19,110,241)" stroke-width="1" opacity="1" d="M 128 60 L 140.5 61 L 146 64 L 150 71.5 L 150 78.5 L 146 86 L 140.5 89 L 128 90 L 128 60 Z " /><path fill="rgb(25,136,252)" stroke="rgb(25,136,252)" stroke-width="1" opacity="0.4627450980392157" d="M 44.5 0 L 50 0.5 L 41.5 2 L 41.5 1 L 44.5 0 Z " /><path fill="rgb(25,136,252)" stroke="rgb(25,136,252)" stroke-width="1" opacity="0.4627450980392157" d="M 38.5 2 L 40 2.5 L 33.5 6 L 34.5 4 L 38.5 2 Z " /><path fill="rgb(25,136,252)" stroke="rgb(25,136,252)" stroke-width="1" opacity="0.4627450980392157" d="M 223.5 5 L 225.5 8 L 223.5 5 Z " /><path fill="rgb(25,136,252)" stroke="rgb(25,136,252)" stroke-width="1" opacity="0.4627450980392157" d="M 31.5 6 L 28.5 10 L 25 12.5 L 20.5 19 L 21 17.5 L 27.5 9 L 31.5 6 Z " /><path fill="rgb(25,136,252)" stroke="rgb(25,136,252)" stroke-width="1" opacity="0.4627450980392157" d="M 228.5 9 L 231.5 13 L 228.5 9 Z " /><path fill="rgb(25,136,252)" stroke="rgb(25,136,252)" stroke-width="1" opacity="0.4627450980392157" d="M 233.5 15 L 234.5 17 L 233.5 15 Z " /><path fill="rgb(25,136,252)" stroke="rgb(25,136,252)" stroke-width="1" opacity="0.4627450980392157" d="M 236.5 20 L 238 22.5 L 237 22.5 L 236.5 20 Z " /><path fill="rgb(25,136,252)" stroke="rgb(25,136,252)" stroke-width="1" opacity="0.4627450980392157" d="M 16.5 27 L 17 29.5 L 16 29.5 L 16.5 27 Z " /><path fill="rgb(25,136,252)" stroke="rgb(25,136,252)" stroke-width="1" opacity="0.4627450980392157" d="M 15.5 32 L 16 223.5 L 15 223.5 L 15.5 32 Z " /><path fill="rgb(25,136,252)" stroke="rgb(25,136,252)" stroke-width="1" opacity="0.4627450980392157" d="M 240.5 32 L 241 35.5 L 240 35.5 L 240.5 32 Z " /><path fill="rgb(25,136,252)" stroke="rgb(25,136,252)" stroke-width="1" opacity="0.4627450980392157" d="M 240.5 220 L 241 223.5 L 240 223.5 L 240.5 220 Z " /><path fill="rgb(25,136,252)" stroke="rgb(25,136,252)" stroke-width="1" opacity="0.4627450980392157" d="M 16.5 226 L 17 228.5 L 16 228.5 L 16.5 226 Z " /><path fill="rgb(25,136,252)" stroke="rgb(25,136,252)" stroke-width="1" opacity="0.4627450980392157" d="M 237.5 233 L 238 234.5 L 236 235.5 L 237.5 233 Z " /><path fill="rgb(25,136,252)" stroke="rgb(25,136,252)" stroke-width="1" opacity="0.4627450980392157" d="M 20.5 237 L 27.5 246 L 32 249.5 L 28.5 247 L 24 243.5 L 20.5 237 Z " /><path fill="rgb(25,136,252)" stroke="rgb(25,136,252)" stroke-width="1" opacity="0.4627450980392157" d="M 234.5 239 L 233.5 241 L 234.5 239 Z " /><path fill="rgb(25,136,252)" stroke="rgb(25,136,252)" stroke-width="1" opacity="0.4627450980392157" d="M 231.5 243 L 228.5 247 L 231.5 243 Z " /><path fill="rgb(25,136,252)" stroke="rgb(25,136,252)" stroke-width="1" opacity="0.4627450980392157" d="M 225.5 248 L 223.5 251 L 225.5 248 Z " /><path fill="rgb(25,136,252)" stroke="rgb(25,136,252)" stroke-width="1" opacity="0.4627450980392157" d="M 33.5 250 L 40 253.5 L 38.5 254 Q 33.9 252.8 33.5 250 Z " /><path fill="rgb(25,136,252)" stroke="rgb(25,136,252)" stroke-width="1" opacity="0.4627450980392157" d="M 41.5 254 L 50 255.5 L 44.5 256 L 41.5 255 L 41.5 254 Z " /><path fill="rgb(22,137,251)" stroke="rgb(22,137,251)" stroke-width="1" opacity="0.996078431372549" d="M 31.5 7 L 30.5 9 L 31.5 7 Z " /><path fill="rgb(22,137,251)" stroke="rgb(22,137,251)" stroke-width="1" opacity="0.996078431372549" d="M 23.5 15 L 22.5 17 L 23.5 15 Z " /><path fill="rgb(22,137,251)" stroke="rgb(22,137,251)" stroke-width="1" opacity="0.996078431372549" d="M 169.5 45 L 170.5 47 L 169.5 45 Z " /><path fill="rgb(22,137,251)" stroke="rgb(22,137,251)" stroke-width="1" opacity="0.996078431372549" d="M 146.5 65 L 147.5 67 L 146.5 65 Z " /><path fill="rgb(22,137,251)" stroke="rgb(22,137,251)" stroke-width="1" opacity="0.996078431372549" d="M 147.5 83 L 146.5 85 L 147.5 83 Z " /><path fill="rgb(22,137,251)" stroke="rgb(22,137,251)" stroke-width="1" opacity="0.996078431372549" d="M 170.5 103 L 169.5 105 L 170.5 103 Z " /><path fill="rgb(22,137,251)" stroke="rgb(22,137,251)" stroke-width="1" opacity="0.996078431372549" d="M 22.5 239 L 23.5 241 L 22.5 239 Z " /><path fill="rgb(22,137,251)" stroke="rgb(22,137,251)" stroke-width="1" opacity="0.996078431372549" d="M 30.5 247 L 31.5 249 L 30.5 247 Z " /><path fill="rgb(225,228,251)" stroke="rgb(225,228,251)" stroke-width="1" opacity="1" d="M 83.5 30 L 128 30 L 128 60 L 105 60 L 105 90 L 128 90 L 128 120 L 105 120 L 105 175.5 L 101.5 180 L 98.5 181 L 82.5 181 L 77 177.5 L 76 175.5 L 76 35.5 L 79.5 31 L 83.5 30 Z " /><path fill="rgb(225,228,251)" stroke="rgb(225,228,251)" stroke-width="1" opacity="1" d="M 83.5 196 L 127.5 196 L 128 196.5 L 128 211 L 83.5 211 L 79.5 210 L 77 207.5 L 76 201.5 L 79.5 197 L 83.5 196 Z " /><path fill="rgb(22,137,252)" stroke="rgb(22,137,252)" stroke-width="1" opacity="1" d="M 53.5 0 L 128 0 L 128 30 L 80.5 30 L 77 32.5 L 75 36.5 L 75 174.5 L 78.5 180 L 80.5 181 L 100.5 181 L 104 178.5 L 106 174.5 L 106 120 L 127.5 120 L 128 120.5 L 128 196 L 80.5 196 L 77 198.5 L 75 204.5 L 78.5 210 L 80.5 211 L 128 211 L 128 256 L 53.5 256 L 39.5 253 Q 29.9 249.1 24 241.5 L 19 233.5 L 16 222.5 L 16 33.5 Q 18.6 17.1 29.5 9 L 39.5 3 L 53.5 0 Z " /><path fill="rgb(22,137,252)" stroke="rgb(22,137,252)" stroke-width="1" opacity="1" d="M 106 60 L 128 60 L 128 90 L 106 90 L 106 60 Z " /></svg>