<svg width="32" height="32" version="1.1" xmlns="http://www.w3.org/2000/svg" desc="Created with imagetracer.js version 1.2.6" ><path fill="rgb(170,194,248)" stroke="rgb(170,194,248)" stroke-width="1" opacity="1" d="M 21.5 12 L 20.5 14 L 21.5 12 Z " /><path fill="rgb(170,194,248)" stroke="rgb(170,194,248)" stroke-width="1" opacity="1" d="M 16.5 24 L 19 24.5 L 16.5 25 L 16.5 24 Z " /><path fill="rgb(20,115,243)" stroke="rgb(20,115,243)" stroke-width="1" opacity="0.9411764705882353" d="M 26.5 0 L 30 2.5 L 29.5 4 L 27.5 1 L 26.5 0 Z " /><path fill="rgb(20,115,243)" stroke="rgb(20,115,243)" stroke-width="1" opacity="0.9411764705882353" d="M 29.5 28 L 30 29.5 L 26.5 32 L 26.5 31 L 29 29.5 L 29.5 28 Z " /><path fill="rgb(0,0,0)" stroke="rgb(0,0,0)" stroke-width="1" opacity="0" d="M 0 0 L 3 0.5 L 1 4.5 L 1 27.5 L 3 31.5 L 0 32 L 0 0 Z " /><path fill="rgb(0,0,0)" stroke="rgb(0,0,0)" stroke-width="1" opacity="0" d="M 29.5 0 L 32 0.5 L 32 32 L 29 31.5 L 31 27.5 L 31 4.5 L 29.5 0 Z " /><path fill="rgb(20,146,253)" stroke="rgb(20,146,253)" stroke-width="1" opacity="0.18823529411764706" d="M 3.5 0 L 5 0.5 L 3 1 L 2.5 3 L 2 1.5 L 3.5 0 Z " /><path fill="rgb(20,146,253)" stroke="rgb(20,146,253)" stroke-width="1" opacity="0.18823529411764706" d="M 28.5 0 L 29.5 2 L 28.5 0 Z " /><path fill="rgb(20,146,253)" stroke="rgb(20,146,253)" stroke-width="1" opacity="0.18823529411764706" d="M 1.5 4 L 2 27.5 L 1 27.5 L 1.5 4 Z " /><path fill="rgb(20,146,253)" stroke="rgb(20,146,253)" stroke-width="1" opacity="0.18823529411764706" d="M 30.5 4 L 31 27.5 L 30 27.5 L 30.5 4 Z " /><path fill="rgb(20,146,253)" stroke="rgb(20,146,253)" stroke-width="1" opacity="0.18823529411764706" d="M 2.5 29 L 3 31 L 5 31.5 L 3.5 32 L 2.5 29 Z " /><path fill="rgb(20,146,253)" stroke="rgb(20,146,253)" stroke-width="1" opacity="0.18823529411764706" d="M 29.5 30 L 28.5 32 L 29.5 30 Z " /><path fill="rgb(23,137,251)" stroke="rgb(23,137,251)" stroke-width="1" opacity="0.996078431372549" d="M 21.5 23 L 22.5 25 L 21.5 23 Z " /><path fill="rgb(225,228,251)" stroke="rgb(225,228,251)" stroke-width="1" opacity="1" d="M 10 4 L 16 4 L 16 7 L 13 7 L 13 12 Q 17.5 10.5 16 15 L 13 15 L 13 22 L 10 22 L 10 4 Z " /><path fill="rgb(225,228,251)" stroke="rgb(225,228,251)" stroke-width="1" opacity="1" d="M 10.5 25 L 16 25.5 L 10.5 26 L 10.5 25 Z " /><path fill="rgb(197,201,247)" stroke="rgb(197,201,247)" stroke-width="1" opacity="1" d="M 16 4 L 21 5 L 22 11.5 Q 20.7 15.7 16 15 L 16 11 L 17.5 11 L 19 8 L 16 6.5 L 16 4 Z " /><path fill="rgb(197,201,247)" stroke="rgb(197,201,247)" stroke-width="1" opacity="1" d="M 19 23 L 22 24.5 L 20.5 28 Q 17.9 28.7 19 26 L 16.5 26 L 16.5 25 Q 20.3 26 19 23 Z " /><path fill="rgb(19,110,241)" stroke="rgb(19,110,241)" stroke-width="1" opacity="1" d="M 16 0 L 25.5 0 L 29 2.5 L 30 4.5 L 30 27.5 L 27.5 31 L 25.5 32 L 16 32 L 16 27 L 19 27 L 19.5 29 L 23 24.5 L 19.5 22 L 16 24 L 16 15 L 19.5 15 Q 24 14 23 7.5 Q 20.7 3.5 16 3 L 16 0 Z " /><path fill="rgb(19,110,241)" stroke="rgb(19,110,241)" stroke-width="1" opacity="1" d="M 16 8 Q 19.3 6.9 18 11 Q 14.7 12.1 16 8 Z " /><path fill="rgb(22,137,252)" stroke="rgb(22,137,252)" stroke-width="1" opacity="1" d="M 5.5 0 L 15.5 0 L 16 3 L 9 4 L 9 21.5 L 10.5 23 L 13 23 L 13 15 L 16 15 L 16 24 L 10.5 24 Q 7.5 25.5 10.5 27 Q 18.8 24.5 16 32 L 5.5 32 L 3 29.5 L 2 27.5 L 2 4.5 L 5.5 0 Z " /><path fill="rgb(22,137,252)" stroke="rgb(22,137,252)" stroke-width="1" opacity="1" d="M 13 8 Q 17.5 6.5 16 11 Q 11.5 12.5 13 8 Z " /><path fill="rgb(114,174,250)" stroke="rgb(114,174,250)" stroke-width="1" opacity="1" d="M 11.5 3 L 17 3.5 L 11.5 4 L 11.5 3 Z " /><path fill="rgb(114,174,250)" stroke="rgb(114,174,250)" stroke-width="1" opacity="1" d="M 9.5 4 L 10 21.5 L 9 21.5 L 9.5 4 Z " /><path fill="rgb(114,174,250)" stroke="rgb(114,174,250)" stroke-width="1" opacity="1" d="M 10.5 24 L 16 24.5 L 10 25.5 L 19 26.5 L 10.5 27 Q 7.5 25.5 10.5 24 Z " /></svg>